<svg width="600" height="400" viewBox="0 0 600 400" fill="none" xmlns="http://www.w3.org/2000/svg">
  <rect width="600" height="400" fill="#F3F4F6"/>
  <rect x="100" y="50" width="400" height="300" rx="8" fill="white" stroke="#E5E7EB" stroke-width="2"/>
  <rect x="120" y="80" width="360" height="40" rx="4" fill="#EEF2FF"/>
  <rect x="130" y="90" width="200" height="20" rx="2" fill="#818CF8"/>
  <rect x="120" y="140" width="160" height="160" rx="4" fill="#EEF2FF"/>
  <circle cx="200" cy="180" r="30" fill="#4F46E5"/>
  <rect x="170" y="220" width="60" height="10" rx="2" fill="#818CF8"/>
  <rect x="150" y="240" width="100" height="10" rx="2" fill="#818CF8"/>
  <rect x="160" y="260" width="80" height="10" rx="2" fill="#818CF8"/>
  <rect x="300" y="140" width="180" height="80" rx="4" fill="#EEF2FF"/>
  <rect x="320" y="160" width="140" height="10" rx="2" fill="#818CF8"/>
  <rect x="320" y="180" width="120" height="10" rx="2" fill="#818CF8"/>
  <rect x="320" y="200" width="100" height="10" rx="2" fill="#818CF8"/>
  <rect x="300" y="240" width="180" height="60" rx="4" fill="#EEF2FF"/>
  <rect x="320" y="260" width="140" height="10" rx="2" fill="#818CF8"/>
  <rect x="320" y="280" width="120" height="10" rx="2" fill="#818CF8"/>
</svg>

